<?xml version="1.0" encoding="utf-8"?>
<!-- Generator: Adobe Illustrator 16.0.0, SVG Export Plug-In . SVG Version: 6.00 Build 0)  -->
<!DOCTYPE svg PUBLIC "-//W3C//DTD SVG 1.1//EN" "http://www.w3.org/Graphics/SVG/1.1/DTD/svg11.dtd">
<svg version="1.1" id="Layer_1" xmlns="http://www.w3.org/2000/svg" xmlns:xlink="http://www.w3.org/1999/xlink" x="0px" y="0px"
	 width="92px" height="80px" viewBox="0 0 92 80" enable-background="new 0 0 92 80" xml:space="preserve">
<g id="open">
	<rect x="13" y="12" width="20" height="3"/>
	<rect x="13" y="19" width="20" height="3"/>
	<rect x="13" y="26" width="20" height="3"/>
</g>
<g id="open_1_">
	<rect x="13" y="52" fill="#FFFFFF" width="20" height="3"/>
	<rect x="13" y="59" fill="#FFFFFF" width="20" height="3"/>
	<rect x="13" y="66" fill="#FFFFFF" width="20" height="3"/>
</g>
<rect x="58.992" y="18.493" transform="matrix(-0.7071 -0.7071 0.7071 -0.7071 103.6337 82.9139)" width="19.996" height="2.999"/>
<rect x="58.995" y="18.511" transform="matrix(-0.7071 0.7071 -0.7071 -0.7071 131.9278 -14.6245)" width="19.996" height="2.999"/>
<rect x="58.994" y="58.487" transform="matrix(-0.7071 -0.7071 0.7071 -0.7071 75.3608 151.1891)" fill="#FFFFFF" width="19.996" height="3"/>
<rect x="58.99" y="58.504" transform="matrix(-0.7071 0.7071 -0.7071 -0.7071 160.1987 53.6513)" fill="#FFFFFF" width="19.996" height="2.999"/>
</svg>
