<svg xmlns="http://www.w3.org/2000/svg" width="493" height="435"><style type="text/css"><![CDATA[
	.st0{fill:#FFFFFF;}
]]></style><line class="st0" x1="351.66" y1="98.93" x2="395.5" y2="54.17"/><rect x="366.08" y="45.22" transform="matrix(.715 .7 -.7 .715 160.232 -239.529)" width="15" height="62.66"/><line class="st0" x1="395.5" y1="143.69" x2="439.34" y2="98.93"/><rect x="409.92" y="89.99" transform="matrix(.715 .7 -.7 .715 204.071 -257.42)" width="15" height="62.66"/><path class="st0" d="M433.83 64.17s24.17-80.83-38.33-41.67c0 0-40 21.67 4.17 41.67"/><path d="M396.57 71c-16.32-7.39-24.79-16.49-25.17-27.05-.56-15.68 17.3-26.26 20.29-27.92 20.1-12.56 34.64-15.04 44.44-7.58 17.2 13.09 7.08 50.5 4.88 57.87l-14.37-4.3 7.19 2.15-7.19-2.14c4.27-14.34 6.78-36.79.4-41.64-1.49-1.13-7.88-3.87-27.57 8.47l-.41.24c-4.04 2.22-12.88 8.92-12.67 14.34.16 4.2 6.12 9.27 16.36 13.9l-6.18 13.66z"/><path class="st0" d="M427.65 60.32s77.68-32.91 45.63 33.52c0 0-17.14 42.14-41.87.44"/><path d="M453.09 120.2c-9.98 0-19.43-7.42-28.14-22.09l12.9-7.65c5.74 9.68 11.46 15.05 15.63 14.73 5.46-.41 11.11-9.9 12.84-14.17l.19-.43c10.1-20.93 6.68-26.98 5.39-28.33-5.55-5.83-27.57-.85-41.34 4.98l-9.86-10.81c7.08-3 47.15-20.17 62.06-4.52 8.49 8.91 7.62 23.63-2.65 45-1.32 3.16-9.87 22.07-25.52 23.24-.49.03-.99.05-1.5.05z"/><line class="st0" x1="203.71" y1="334.97" x2="159.87" y2="379.74"/><rect x="174.29" y="326.03" transform="matrix(-.715 -.7 .7 -.715 61.636 739.86)" width="15" height="62.65"/><line class="st0" x1="159.87" y1="290.21" x2="116.03" y2="334.97"/><rect x="130.45" y="281.26" transform="matrix(-.715 -.7 .7 -.715 17.797 632.441)" width="15" height="62.66"/><path class="st0" d="M121.54 369.74s-24.17 80.83 38.33 41.67c0 0 40-21.67-4.17-41.67"/><path d="M158.8 362.9c16.32 7.39 24.79 16.49 25.17 27.05.56 15.68-17.3 26.26-20.29 27.92-20.1 12.56-34.64 15.04-44.44 7.58-17.2-13.09-7.08-50.5-4.88-57.87l14.37 4.3-7.19-2.15 7.19 2.14c-4.27 14.34-6.78 36.79-.4 41.64 1.49 1.13 7.88 3.87 27.57-8.47l.41-.24c4.04-2.22 12.88-8.92 12.67-14.33-.16-4.2-6.12-9.27-16.36-13.9l6.18-13.67z"/><path class="st0" d="M127.72 373.58s-77.68 32.91-45.63-33.52c0 0 17.14-42.14 41.87-.44"/><path d="M102.28 313.71c9.98 0 19.43 7.42 28.14 22.09l-12.9 7.65c-5.74-9.68-11.46-15.04-15.63-14.73-5.46.41-11.11 9.9-12.84 14.17l-.19.43c-10.1 20.93-6.68 26.98-5.39 28.33 5.55 5.83 27.57.85 41.34-4.98l9.86 10.81c-7.08 3-47.15 20.17-62.06 4.52-8.49-8.92-7.62-23.63 2.65-45 1.32-3.16 9.87-22.07 25.52-23.24.49-.04.99-.05 1.5-.05z"/><line class="st0" x1="143.66" y1="98.67" x2="99.82" y2="53.91"/><rect x="114.24" y="44.96" transform="matrix(-.715 .7 -.7 -.715 262.098 45.621)" width="15" height="62.66"/><line class="st0" x1="99.82" y1="143.44" x2="55.98" y2="98.67"/><rect x="70.4" y="89.73" transform="matrix(-.715 .7 -.7 -.715 218.258 153.041)" width="15" height="62.66"/><path class="st0" d="M61.49 63.91s-24.17-80.83 38.33-41.67c0 0 40 21.67-4.17 41.67"/><path d="M98.75 70.74c16.32-7.39 24.79-16.49 25.17-27.05.56-15.68-17.3-26.26-20.29-27.92-20.12-12.56-34.65-15.04-44.45-7.58-17.2 13.09-7.08 50.5-4.88 57.87l14.37-4.3-7.19 2.15 7.19-2.14c-4.27-14.34-6.78-36.79-.4-41.64 1.49-1.13 7.88-3.87 27.57 8.47l.41.24c4.04 2.22 12.88 8.92 12.67 14.34-.16 4.2-6.12 9.27-16.36 13.9l6.19 13.66z"/><path class="st0" d="M67.67 60.06s-77.68-32.91-45.63 33.52c0 0 17.14 42.14 41.87.44"/><path d="M42.23 119.94c9.98 0 19.43-7.42 28.14-22.09l-12.9-7.65c-5.74 9.68-11.46 15.05-15.63 14.73-5.46-.41-11.11-9.9-12.84-14.17l-.19-.43c-10.1-20.93-6.68-26.98-5.39-28.33 5.55-5.83 27.57-.85 41.34 4.98l9.86-10.81c-7.08-3-47.15-20.17-62.06-4.52-8.49 8.91-7.62 23.63 2.65 45 1.32 3.16 9.87 22.07 25.52 23.24.49.03.99.05 1.5.05z"/><line class="st0" x1="291.61" y1="334.71" x2="335.45" y2="379.48"/><rect x="306.03" y="325.77" transform="matrix(.715 -.7 .7 .715 -160.325 321.316)" width="15" height="62.65"/><line class="st0" x1="335.45" y1="289.95" x2="379.29" y2="334.71"/><rect x="349.87" y="281.01" transform="matrix(.715 -.7 .7 .715 -116.488 339.229)" width="15" height="62.65"/><path class="st0" d="M373.78 369.48s24.17 80.83-38.33 41.67c0 0-40-21.67 4.17-41.67"/><path d="M336.52 362.65c-16.32 7.39-24.79 16.49-25.17 27.05-.56 15.68 17.3 26.26 20.29 27.92 20.1 12.56 34.64 15.04 44.44 7.58 17.2-13.09 7.08-50.5 4.88-57.87l-14.37 4.3 7.19-2.15-7.19 2.14c4.27 14.34 6.78 36.79.4 41.64-1.49 1.13-7.88 3.87-27.57-8.47l-.41-.24c-4.04-2.22-12.88-8.92-12.67-14.33.16-4.2 6.12-9.27 16.36-13.9l-6.18-13.67z"/><path class="st0" d="M367.6 373.33s77.68 32.91 45.63-33.52c0 0-17.14-42.14-41.87-.44"/><path d="M393.04 313.45c-9.98 0-19.43 7.42-28.14 22.09l12.9 7.65c5.74-9.68 11.46-15.04 15.63-14.73 5.46.41 11.11 9.9 12.84 14.17l.19.43c10.1 20.94 6.68 26.98 5.39 28.33-5.55 5.83-27.57.85-41.34-4.98l-9.86 10.81c7.08 3 47.15 20.17 62.06 4.52 8.49-8.92 7.62-23.63-2.65-45-1.32-3.16-9.87-22.07-25.52-23.24-.49-.03-.99-.05-1.5-.05z"/><polygon class="st0" points="159.87,351.47 330.09,350.85 330.42,290.21 360.67,270.01 402.67,221.33 406.67,158 342.08,93.68 236.67,73.33 159.87,88.14 94.46,139.33 77.9,204.67 116.94,257.33 158,286"/><path class="st0" d="M410.42 187.33c0-63.88-74.06-115.67-165.42-115.67s-165.42 51.79-165.42 115.67c0 42.03 32.06 78.81 80 99.07v61.93h170.83v-61.93c47.95-20.25 80.01-57.04 80.01-99.07z"/><path d="M337.92 355.83h-185.84v-64.53c-23.05-10.45-42.43-24.73-56.27-41.5-15.53-18.83-23.73-40.43-23.73-62.47 0-33.42 18.34-64.64 51.65-87.94 32.5-22.71 75.56-35.22 121.27-35.22 45.71 0 88.77 12.51 121.27 35.23 33.31 23.29 51.65 54.52 51.65 87.94 0 22.04-8.21 43.65-23.74 62.47-13.84 16.77-33.22 31.06-56.27 41.5v64.52zm-170.84-15h155.83v-59.4l4.58-1.94c22.85-9.65 41.9-23.22 55.11-39.23 13.28-16.11 20.31-34.41 20.31-52.93 0-59.64-70.84-108.17-157.92-108.17-87.08 0-157.92 48.52-157.92 108.17 0 18.52 7.02 36.82 20.31 52.93 13.21 16.02 32.27 29.58 55.11 39.23l4.58 1.94v59.4z"/><ellipse transform="matrix(.798 -.603 .603 .798 -47.424 230.993)" cx="320.92" cy="186.25" rx="59.58" ry="47.08"/><ellipse transform="matrix(-.798 -.603 .603 -.798 176.488 432.159)" cx="160.66" cy="186.51" rx="59.58" ry="47.08"/></svg>