<svg xmlns="http://www.w3.org/2000/svg" width="493" height="435" viewBox="0 0 493 435"><style type="text/css"><![CDATA[
	.st0{fill:#FFFFFF;}
	.st1{fill:none;}
]]></style><line class="st1" x1="351.7" y1="98.9" x2="395.5" y2="54.2"/><rect x="366.3" y="45.4" transform="matrix(-.715 -.7 .7 -.715 587.158 392.998)" width="15" height="62.7"/><line class="st1" x1="395.5" y1="143.7" x2="439.3" y2="98.9"/><rect x="410.1" y="90.2" transform="matrix(-.715 -.7 .7 -.715 630.988 500.497)" width="15" height="62.7"/><path class="st0" d="M433.8 64.2s24.2-80.8-38.3-41.7c0 0-40 21.7 4.2 41.7"/><path d="M396.6 71c-16.3-7.4-24.8-16.5-25.2-27-.6-15.7 17.3-26.3 20.3-27.9 20.1-12.6 34.6-15 44.4-7.6 17.2 13.1 7.1 50.5 4.9 57.9l-14.4-4.4 7.2 2.1-7.2-2.1c4.3-14.3 6.8-36.8.4-41.6-1.5-1.1-7.9-3.9-27.6 8.5l-.4.2c-4 2.2-12.9 8.9-12.7 14.3.2 4.2 6.1 9.3 16.4 13.9l-6.1 13.7z"/><path class="st0" d="M427.7 60.3s77.7-32.9 45.6 33.5c0 0-17.1 42.1-41.9.4"/><path d="M453.1 120.2c-10 0-19.4-7.4-28.1-22.1l12.9-7.6c5.7 9.7 11.5 15 15.6 14.7 5.5-.4 11.1-9.9 12.8-14.2l.2-.4c10.1-20.9 6.7-27 5.4-28.3-5.6-5.8-27.6-.8-41.3 5l-9.9-10.8c7.1-3 47.1-20.2 62.1-4.5 8.5 8.9 7.6 23.6-2.6 45-1.3 3.2-9.9 22.1-25.5 23.2h-1.6z"/><line class="st1" x1="203.7" y1="335" x2="159.9" y2="379.7"/><rect x="174.3" y="325.8" transform="matrix(.715 .7 -.7 .715 301.708 -25.257)" width="15" height="62.7"/><line class="st1" x1="159.9" y1="290.2" x2="116" y2="335"/><rect x="130.5" y="281" transform="matrix(.715 .7 -.7 .715 257.91 -7.361)" width="15" height="62.7"/><path class="st0" d="M121.5 369.7s-24.2 80.8 38.3 41.7c0 0 40-21.7-4.2-41.7"/><path d="M158.8 362.9c16.3 7.4 24.8 16.5 25.2 27 .6 15.7-17.3 26.3-20.3 27.9-20.1 12.6-34.6 15-44.4 7.6-17.2-13.1-7.1-50.5-4.9-57.9l14.4 4.3-7.2-2.1 7.2 2.1c-4.3 14.3-6.8 36.8-.4 41.6 1.5 1.1 7.9 3.9 27.6-8.5l.4-.2c4-2.2 12.9-8.9 12.7-14.3-.2-4.2-6.1-9.3-16.4-13.9l6.1-13.6z"/><path class="st0" d="M127.7 373.6s-77.7 32.9-45.6-33.5c0 0 17.1-42.1 41.9-.4"/><path d="M102.3 313.7c10 0 19.4 7.4 28.1 22.1l-12.9 7.7c-5.7-9.7-11.5-15-15.6-14.7-5.5.4-11.1 9.9-12.8 14.2l-.2.4c-10.1 20.9-6.7 27-5.4 28.3 5.5 5.8 27.6.8 41.3-5l9.9 10.8c-7.1 3-47.1 20.2-62.1 4.5-8.5-8.9-7.6-23.6 2.6-45 1.3-3.2 9.9-22.1 25.5-23.2.6-.1 1.1-.1 1.6-.1z"/><line class="st1" x1="143.7" y1="98.7" x2="99.8" y2="53.9"/><rect x="114.1" y="44.9" transform="matrix(.715 -.7 .7 .715 -18.648 106.879)" width="15" height="62.7"/><line class="st1" x1="99.8" y1="143.4" x2="56" y2="98.7"/><rect x="70.3" y="89.7" transform="matrix(.715 -.7 .7 .715 -62.446 88.983)" width="15" height="62.7"/><path class="st0" d="M61.5 63.9s-24.2-80.8 38.3-41.7c0 0 40 21.7-4.2 41.7"/><path d="M98.8 70.7c16.3-7.4 24.8-16.5 25.2-27.1.6-15.7-17.3-26.3-20.3-27.9-20.2-12.5-34.7-15-44.5-7.5-17.2 13.1-7.1 50.5-4.9 57.9l14.4-4.3-7.2 2.2 7.2-2.1c-4.3-14.3-6.8-36.8-.4-41.6 1.5-1.1 7.9-3.9 27.6 8.5l.4.2c4 2.2 12.9 8.9 12.7 14.3-.2 4.2-6.1 9.3-16.4 13.9l6.2 13.5z"/><path class="st0" d="M67.7 60.1s-77.7-32.9-45.6 33.5c0 0 17.1 42.1 41.9.4"/><path d="M42.2 119.9c10 0 19.4-7.4 28.1-22.1l-12.9-7.6c-5.7 9.7-11.5 15-15.6 14.7-5.4-.4-11.1-9.9-12.8-14.1l-.2-.4c-10.1-20.9-6.7-27-5.4-28.3 5.6-5.8 27.6-.9 41.3 5l9.9-10.8c-7.1-3-47.1-20.2-62.1-4.5-8.5 8.9-7.6 23.6 2.6 45 1.3 3.2 9.9 22.1 25.5 23.2.6-.1 1.1-.1 1.6-.1z"/><line class="st1" x1="291.6" y1="334.7" x2="335.5" y2="379.5"/><rect x="306.3" y="325.8" transform="matrix(-.715 .7 -.7 -.715 787.921 392.842)" width="15" height="62.7"/><line class="st1" x1="335.5" y1="290" x2="379.3" y2="334.7"/><rect x="350.2" y="281" transform="matrix(-.715 .7 -.7 -.715 831.78 285.411)" width="15" height="62.7"/><path class="st0" d="M373.8 369.5s24.2 80.8-38.3 41.7c0 0-40-21.7 4.2-41.7"/><path d="M336.5 362.7c-16.3 7.4-24.8 16.5-25.2 27-.6 15.7 17.3 26.3 20.3 27.9 20.1 12.6 34.6 15 44.4 7.6 17.2-13.1 7.1-50.5 4.9-57.9l-14.4 4.3 7.2-2.1-7.2 2.1c4.3 14.3 6.8 36.8.4 41.6-1.5 1.1-7.9 3.9-27.6-8.5l-.4-.2c-4-2.2-12.9-8.9-12.7-14.3.2-4.2 6.1-9.3 16.4-13.9l-6.1-13.6z"/><path class="st0" d="M367.6 373.3s77.7 32.9 45.6-33.5c0 0-17.1-42.1-41.9-.4"/><path d="M393 313.5c-10 0-19.4 7.4-28.1 22.1l12.9 7.7c5.7-9.7 11.5-15 15.6-14.7 5.5.4 11.1 9.9 12.8 14.2l.2.4c10.1 20.9 6.7 27 5.4 28.3-5.5 5.8-27.6.9-41.3-5l-9.9 10.8c7.1 3 47.1 20.2 62.1 4.5 8.5-8.9 7.6-23.6-2.6-45-1.3-3.2-9.9-22.1-25.5-23.2-.5-.1-1-.1-1.6-.1z"/><polygon class="st0" points="159.9,351.5 330.1,350.8 330.4,290.2 360.7,270 402.7,221.3 406.7,158 342.1,93.7 236.7,73.3 159.9,88.1 94.5,139.3 77.9,204.7 116.9,257.3 158,286"/><path class="st0" d="M410.4 187.3c0-63.9-74.1-115.7-165.4-115.7-91.4 0-165.4 51.8-165.4 115.7 0 42 32.1 78.8 80 99.1v61.9h170.8v-61.9c48-20.2 80-57 80-99.1z"/><path d="M337.9 355.8h-185.8v-64.5c-23.1-10.5-42.4-24.7-56.3-41.5-15.5-18.8-23.7-40.4-23.7-62.5 0-33.4 18.3-64.6 51.6-87.9 32.5-22.7 75.6-35.2 121.3-35.2s88.8 12.5 121.3 35.2c33.3 23.3 51.7 54.5 51.7 87.9 0 22-8.2 43.7-23.7 62.5-13.8 16.8-33.2 31.1-56.3 41.5l-.1 64.5zm-170.8-15h155.8v-59.4l4.6-1.9c22.8-9.7 41.9-23.2 55.1-39.2 13.3-16.1 20.3-34.4 20.3-52.9 0-59.6-70.8-108.2-157.9-108.2s-157.9 48.5-157.9 108.1c0 18.5 7 36.8 20.3 52.9 13.2 16 32.3 29.6 55.1 39.2l4.6 1.9v59.5z"/><ellipse transform="matrix(-.603 -.798 .798 -.603 366.006 554.393)" cx="321" cy="186.1" rx="47.1" ry="59.6"/><ellipse transform="matrix(-.603 .798 -.798 -.603 406.41 170.601)" cx="160.7" cy="186.4" rx="47.1" ry="59.6"/></svg>